Coordinates
version=1
nRows=27
nColumns=12
inDegrees=yes

Units are S.I. units (second, meters, Newtons, ...)
Angles are in degrees

endheader
time	SC_y	SC_z	SC_x	AC_y	AC_z	AC_x	GH_y	GH_z	GH_yy	EL_x	PS_y
       0.0              -28.33         -3.714           25.0          43.16         -3.097         -5.827           22.0          75.64         -81.22          139.2          102.6
   0.02831              -28.33         -3.708          25.01          43.16         -3.098         -5.828          22.01          75.64         -81.19          139.2          102.6
   0.05662              -28.33         -3.701          25.01          43.16         -3.099         -5.829          22.03          75.63         -81.17          139.2          102.6
   0.08493              -28.33         -3.695          25.01          43.17         -3.101         -5.829          22.05          75.63         -81.14          139.2          102.6
    0.1132              -28.33         -3.687          25.02          43.17         -3.102          -5.83          22.07          75.63         -81.11          139.2          102.6
    0.1416              -28.32         -3.679          25.02          43.17         -3.104         -5.831          22.09          75.63         -81.08          139.1          102.6
    0.1699              -28.32         -3.671          25.03          43.17         -3.105         -5.831          22.11          75.62         -81.05          139.1          102.5
    0.1982              -28.32         -3.662          25.03          43.17         -3.107         -5.832          22.14          75.62         -81.01          139.1          102.5
    0.2265              -28.31         -3.653          25.04          43.18         -3.109         -5.833          22.16          75.62         -80.97          139.1          102.5
    0.2548              -28.31         -3.642          25.04          43.18         -3.111         -5.834          22.19          75.61         -80.93          139.1          102.5
    0.2831              -28.31         -3.631          25.05          43.18         -3.113         -5.835          22.22          75.61         -80.89          139.1          102.5
    0.3114               -28.3          -3.62          25.06          43.19         -3.115         -5.836          22.25          75.61         -80.84          139.1          102.5
    0.3397               -28.3         -3.607          25.07          43.19         -3.118         -5.837          22.29           75.6         -80.79          139.1          102.4
     0.368               -28.3         -3.593          25.07          43.19         -3.121         -5.838          22.33           75.6         -80.74          139.1          102.4
    0.3963              -28.29         -3.578          25.08           43.2         -3.124          -5.84          22.37          75.59         -80.68          139.1          102.4
    0.4247              -28.29         -3.562          25.09           43.2         -3.127         -5.841          22.41          75.59         -80.61          139.1          102.4
     0.453              -28.28         -3.545           25.1           43.2          -3.13         -5.843          22.46          75.58         -80.54          139.1          102.3
    0.4813              -28.27         -3.525          25.11          43.21         -3.134         -5.844          22.51          75.57         -80.46          139.0          102.3
    0.5096              -28.27         -3.505          25.13          43.21         -3.138         -5.846          22.57          75.57         -80.38          139.0          102.3
    0.5379              -28.26         -3.482          25.14          43.22         -3.143         -5.848          22.63          75.56         -80.29          139.0          102.2
    0.5662              -28.25         -3.457          25.15          43.23         -3.148          -5.85           22.7          75.55         -80.19          139.0          102.2
    0.5945              -28.24         -3.429          25.17          43.23         -3.153         -5.853          22.77          75.54         -80.08          139.0          102.2
    0.6228              -28.23         -3.398          25.19          43.24         -3.159         -5.856          22.86          75.53         -79.96          138.9          102.1
    0.6511              -28.22         -3.365          25.21          43.25         -3.166         -5.859          22.95          75.52         -79.82          138.9          102.1
    0.6794              -28.21         -3.327          25.23          43.26         -3.173         -5.862          23.05           75.5         -79.67          138.9          102.0
    0.7078               -28.2         -3.285          25.25          43.27         -3.181         -5.866          23.16          75.49         -79.51          138.9          101.9
    0.7361              -28.18         -3.238          25.28          43.28         -3.191          -5.87          23.29          75.47         -79.32          138.8          101.9
